PathFileType	4	(X/Y/Z)	./resultDataOpenSim/trcMotMarkerGrf/sub09/qtm-04-07.trc
DataRate	CameraRate	NumFrames	NumMarkers	Units	OrigDataRate	OrigDataStartFrame	OrigNumFrames
250.000000	250.000000	7	24	m	250.000000	245	488
Frame#	Time	L.Toe.Tip			R.Toe.Tip			L.Ankle.Lat			R.Ankle.Lat			L.Ankle.Med			R.Ankle.Med			L.Heel			R.Heel			L.Knee.Lat			R.Knee.Lat			L.Knee.Med			R.Knee.Med			L.Thigh.Upper			R.Thigh.Upper			L.ASIS			R.ASIS			V.Sacral			L.Acromium			R.Acromium			C7			L.Elbow			R.Elbow			L.Wrist.Lat			R.Wrist.Lat
		X1	Y1	Z1	X2	Y2	Z2	X3	Y3	Z3	X4	Y4	Z4	X5	Y5	Z5	X6	Y6	Z6	X7	Y7	Z7	X8	Y8	Z8	X9	Y9	Z9	X10	Y10	Z10	X11	Y11	Z11	X12	Y12	Z12	X13	Y13	Z13	X14	Y14	Z14	X15	Y15	Z15	X16	Y16	Z16	X17	Y17	Z17	X18	Y18	Z18	X19	Y19	Z19	X20	Y20	Z20	X21	Y21	Z21	X22	Y22	Z22	X23	Y23	Z23	X24	Y24	Z24

245	0.976	0.14630265	-0.035219439	-0.022911103	0.24999579	0.11124078	0.093746363	0.0025184434	0.0067065446	-0.07223968	0.11876935	0.17581802	0.1137743	0.019002036	0.024448035	0.02485028	0.14936535	0.19857555	0.020109699	-0.073290806	-0.019992665	-0.031156786	0.046416571	0.17307782	0.060319526	0.11765744	0.40665687	-0.12454016	0.34409318	0.54439955	0.17147293	0.1140605	0.40781138	0.0010891338	0.37493881	0.52001924	0.026196801	0.11652668	0.83234836	-0.17653821	0.11398245	0.84147169	0.1943936	0.20264099	0.91492124	-0.11357636	0.19071154	0.92569309	0.12504469	0.033457786	0.97969208	-0.00073942895	0.21492045	1.3727065	-0.14945699	0.16388948	1.3804172	0.17534852	0.12462938	1.427645	0.0042650814	0.088888195	1.0230052	-0.22811189	-0.0019289544	1.0548884	0.23630241	0.29198213	0.84259019	-0.22191862	0.090322753	0.80677083	0.29449277
246	0.98	0.1463102	-0.035287958	-0.02279929	0.26955867	0.11075507	0.092851195	0.0025940207	0.007101964	-0.072069003	0.13655109	0.17126768	0.11367525	0.019577311	0.024914454	0.024781837	0.16599914	0.19533719	0.019980426	-0.073325193	-0.01926214	-0.030806789	0.064435816	0.16668145	0.060492826	0.11822188	0.40698778	-0.12449473	0.35192757	0.54786189	0.17157824	0.11485331	0.40824228	0.001269037	0.38334003	0.52291668	0.026018764	0.12100462	0.83263705	-0.17614482	0.12026932	0.84212299	0.19475886	0.20773556	0.91498851	-0.11379066	0.19656511	0.92608652	0.12496913	0.039163935	0.98003965	0.00010076956	0.22074866	1.3729773	-0.14926793	0.17011719	1.3804452	0.17560058	0.1306418	1.4278636	0.0045618832	0.0958772	1.0226131	-0.22801086	0.0037191987	1.0554565	0.23624768	0.30113674	0.84455863	-0.22071875	0.094154067	0.80700813	0.29559765
247	0.984	0.14631688	-0.03533983	-0.022702996	0.28908711	0.11030962	0.092063122	0.0026420026	0.0075316473	-0.071918696	0.15443425	0.16671855	0.11357985	0.020048771	0.02532769	0.024758357	0.18286125	0.19198839	0.01988886	-0.073279277	-0.018589244	-0.030539092	0.082749532	0.16031964	0.06061286	0.11878403	0.40731503	-0.12443267	0.36019981	0.55064839	0.1713687	0.11541353	0.40863818	0.0015026619	0.39149503	0.52563989	0.025941201	0.12565036	0.83294061	-0.17561438	0.12671224	0.84272831	0.19517983	0.21281114	0.9150056	-0.11402188	0.20241361	0.92641703	0.12487396	0.044729932	0.98030217	0.00067718426	0.22656806	1.373186	-0.14908135	0.17634598	1.3804152	0.17585273	0.13666055	1.4280251	0.0048992507	0.1030201	1.0221658	-0.22807209	0.0093754012	1.0559672	0.23622774	0.31024961	0.84648184	-0.21952001	0.098068554	0.80718581	0.29668339
248	0.988	0.14634376	-0.035382066	-0.022643906	0.30861435	0.10988639	0.091373313	0.0026536199	0.0080144597	-0.071810407	0.17248895	0.16216781	0.11343631	0.020365328	0.025701613	0.024790544	0.19996871	0.18858312	0.019773564	-0.073189758	-0.017952456	-0.030301507	0.10136623	0.15395696	0.060532658	0.11934834	0.4076437	-0.12434344	0.36840415	0.55311942	0.17114294	0.11605148	0.40896674	0.0017128937	0.39944615	0.52817449	0.025935508	0.13023637	0.83320868	-0.17508252	0.13318245	0.84325957	0.19560498	0.217862	0.91497445	-0.11426771	0.2082486	0.92667931	0.12475444	0.050205024	0.98049822	0.0010925922	0.23238291	1.3733337	-0.14889517	0.18257661	1.3803237	0.17611124	0.14268887	1.4281324	0.0052380077	0.11014607	1.0216686	-0.22808663	0.015029592	1.0564226	0.23623532	0.31931563	0.84836005	-0.21832558	0.10207397	0.80730382	0.29774237
249	0.992	0.14638294	-0.035424017	-0.022602952	0.32815724	0.10948053	0.09077266	0.0026532023	0.0085356127	-0.071719143	0.19073397	0.15763366	0.11323809	0.020595397	0.026060447	0.024855658	0.21733141	0.18513221	0.019592124	-0.073084097	-0.017322106	-0.030053805	0.12031999	0.14756348	0.06015744	0.11992958	0.40797771	-0.12423182	0.37636225	0.55544659	0.17100349	0.11695456	0.40924592	0.0018404619	0.40723685	0.53049666	0.025970366	0.13466159	0.83339899	-0.17467691	0.13953835	0.84368551	0.1959808	0.22290322	0.91490518	-0.11452301	0.21407933	0.92687211	0.12461417	0.055641876	0.98063662	0.0014511583	0.23819179	1.3734245	-0.14871072	0.18881154	1.3801711	0.17637963	0.14873349	1.4281896	0.0055645919	0.1171286	1.0211109	-0.22789145	0.020702507	1.0568091	0.2362634	0.32834122	0.85019592	-0.21713032	0.10618098	0.8073671	0.29877329
250	0.996	0.14640389	-0.035456557	-0.022550751	0.34771944	0.10910221	0.090256933	0.0027175439	0.0090323321	-0.071550953	0.20910632	0.15317264	0.11302061	0.020818989	0.026420876	0.024952681	0.23489132	0.18163927	0.019358783	-0.072974977	-0.016686027	-0.029778661	0.1394621	0.14120396	0.059628352	0.12051421	0.40831775	-0.12410969	0.38410085	0.5576484	0.17093912	0.11807616	0.40950933	0.0019005476	0.41489808	0.53258915	0.026027239	0.13894534	0.83349102	-0.1744683	0.14574706	0.84400439	0.19629946	0.22795152	0.91480487	-0.11478032	0.21992041	0.92700122	0.12445995	0.061065766	0.98071714	0.0017919809	0.24398866	1.3734608	-0.14853097	0.19505974	1.3799612	0.17665755	0.15479571	1.4281974	0.0058893446	0.12400575	1.0204844	-0.22752546	0.026433338	1.0571108	0.23631173	0.33733354	0.8519898	-0.21592641	0.11040378	0.80737999	0.29977999
251	1	0.1463994	-0.035461029	-0.022494774	0.36728367	0.10876391	0.089835594	0.0029235496	0.0094463381	-0.071248408	0.22753661	0.1488386	0.1128054	0.021076984	0.026785862	0.025088383	0.25253609	0.17814201	0.019127019	-0.072867057	-0.016049034	-0.029469649	0.15850088	0.13500148	0.05923594	0.1210287	0.40866617	-0.12398412	0.39171367	0.55968799	0.17090655	0.11930355	0.40978196	0.0019090251	0.42246271	0.53445365	0.026089952	0.14317363	0.83349228	-0.17447949	0.15186465	0.84423396	0.19658595	0.23302197	0.91467452	-0.11502044	0.22577635	0.92707261	0.12429663	0.066489663	0.98073548	0.0021245893	0.24977215	1.3734409	-0.14835688	0.20133258	1.3796973	0.17694136	0.16086804	1.4281486	0.0062238652	0.13089076	1.0197911	-0.22712648	0.032244338	1.0573221	0.23638836	0.34629228	0.85373888	-0.21471173	0.11476668	0.80734591	0.30077062
